<svg width="164" height="16" viewBox="0 0 164 16" fill="none" xmlns="http://www.w3.org/2000/svg">
<path d="M0 15.5766V0.393982H12.1338V4.03088H4.88056V6.04779H11.0107V9.54062H4.88056V11.8898H12.4337V15.5766H0V15.5766Z" fill="#31287C"/>
<path d="M14.7122 15.5766V0.393982H20.6101C22.1036 0.393982 23.2209 0.458664 23.95 0.590968C24.685 0.723273 25.323 0.9526 25.864 1.25543C26.9166 1.87579 27.7074 2.74606 28.2337 3.8633C28.7629 4.98053 29.0276 6.35944 29.0276 7.99413C29.0276 9.71409 28.7041 11.1606 28.0426 12.3337C27.3929 13.5039 26.4167 14.3741 25.1437 14.9445C24.6497 15.1738 24.0294 15.3297 23.2826 15.4267C22.5358 15.5267 21.3421 15.5737 19.7016 15.5737H14.7122V15.5766ZM19.5869 11.731H20.907C22.1183 11.731 22.9562 11.4605 23.4355 10.9136C23.9059 10.3727 24.1382 9.3995 24.1382 7.99413C24.1382 6.62405 23.8971 5.65675 23.4178 5.08637C22.9386 4.516 22.1213 4.23669 20.9687 4.23669H19.5898V11.731H19.5869Z" fill="#31287C"/>
<path d="M31.3502 15.5766V0.393982H36.3219V15.5766H31.3502V15.5766Z" fill="#31287C"/>
<path d="M44.0985 15.5766V9.95517L38.5065 0.393982H43.9133L46.53 5.56561L49.1702 0.393982H54.4271L48.9703 9.95517V15.5766H44.0985V15.5766Z" fill="#31287C"/>
<path d="M52.0956 15.5766L57.4377 0.393982H62.3742L67.7134 15.5766H62.8769L62.3124 13.5656H57.4789L56.8879 15.5766H52.0956V15.5766ZM58.3639 10.3785H61.4274L59.9104 5.1246L58.3639 10.3785Z" fill="#31287C"/>
<path d="M85.9067 9.69349H90.5227C90.3904 11.6928 89.6847 13.251 88.4087 14.3506C87.1327 15.4502 85.4186 16 83.243 16C80.8086 16 78.9004 15.2944 77.5039 13.8684C76.1044 12.4395 75.4076 10.4844 75.4076 7.99999C75.4076 5.53031 76.1044 3.57221 77.4833 2.14626C78.8593 0.714433 80.7468 0.00292969 83.1283 0.00292969C85.3275 0.00292969 87.0563 0.532147 88.3205 1.59058C89.5818 2.6549 90.2904 4.17493 90.4403 6.15067H85.7656C85.698 5.37154 85.4451 4.78353 85.007 4.38367C84.5807 3.99264 83.9633 3.79859 83.1842 3.79859C82.2345 3.79859 81.5142 4.14846 81.0349 4.84233C80.5557 5.53913 80.3234 6.59462 80.3234 8.00293C80.3234 9.38772 80.5822 10.4344 81.0849 11.14C81.5965 11.8486 82.3433 12.2043 83.3224 12.2043C84.0838 12.2043 84.6777 11.9897 85.1246 11.5487C85.5686 11.1165 85.8332 10.4991 85.9067 9.69349Z" fill="#31287C"/>
<path d="M91.925 7.99706C91.925 5.52738 92.6247 3.56928 94.0389 2.14333C95.459 0.711503 97.3818 0 99.8221 0C102.256 0 104.176 0.711503 105.588 2.14333C107.002 3.56928 107.699 5.52738 107.699 7.99706C107.699 10.4667 107.002 12.419 105.588 13.8508C104.176 15.2826 102.256 15.9971 99.8221 15.9971C97.3818 15.9971 95.459 15.2826 94.0389 13.8508C92.6247 12.4219 91.925 10.4667 91.925 7.99706ZM96.8467 7.99706C96.8467 9.43183 97.0849 10.4903 97.5641 11.1635C98.0463 11.8368 98.7989 12.172 99.8191 12.172C100.839 12.172 101.589 11.8368 102.062 11.1665C102.533 10.4991 102.771 9.44065 102.771 7.99706C102.771 6.55053 102.536 5.48916 102.062 4.81588C101.589 4.15436 100.839 3.81624 99.8191 3.81624C98.7989 3.81624 98.0433 4.15436 97.5641 4.82764C97.0849 5.50092 96.8467 6.55641 96.8467 7.99706Z" fill="#31287C"/>
<path d="M109.924 15.5766V0.393982H121.411V4.21611H114.805V6.56818H120.059V10.2374H114.805V15.5796H109.924V15.5766Z" fill="#31287C"/>
<path d="M123.272 15.5766V0.393982H134.756V4.21611H128.144V6.56818H133.407V10.2374H128.144V15.5796H123.272V15.5766Z" fill="#31287C"/>
<path d="M136.609 15.5766V0.393982H148.748V4.03088H141.483V6.04779H147.622V9.54062H141.483V11.8898H149.042V15.5766H136.609V15.5766Z" fill="#31287C"/>
<path d="M151.321 15.5766V0.393982H163.461V4.03088H156.201V6.04779H162.346V9.54062H156.201V11.8898H163.758V15.5766H151.321V15.5766Z" fill="#31287C"/>
</svg>
